<svg xmlns="http://www.w3.org/2000/svg" width="115.797" height="27.267" viewBox="0 0 115.797 27.267">
  <path id="Path_469" data-name="Path 469" d="M-1020.03-428.221v-26.51h-3.757v11.172h-4.466v-11.172h-3.757v26.51h3.757v-11.551h4.466v11.551Zm7.94-26.889c-3.757,0-6.061,2.537-6.061,6.7v13.861c0,4.166,2.3,6.7,6.061,6.7s6.061-2.537,6.061-6.7v-13.861C-1006.03-452.573-1008.333-455.11-1012.09-455.11Zm0,3.711c1.489,0,2.3,1.06,2.3,3.03v13.785c0,1.969-.815,3.03-2.3,3.03s-2.3-1.06-2.3-3.03v-13.785C-1014.394-450.338-1013.579-451.4-1012.09-451.4Zm13.611-3.711c-3.757,0-6.061,2.537-6.061,6.7v13.861c0,4.166,2.3,6.7,6.061,6.7s6.061-2.537,6.061-6.7v-13.861C-992.419-452.573-994.723-455.11-998.48-455.11Zm0,3.711c1.489,0,2.3,1.06,2.3,3.03v13.785c0,1.969-.815,3.03-2.3,3.03s-2.3-1.06-2.3-3.03v-13.785C-1000.784-450.338-999.969-451.4-998.48-451.4Zm15.454,7.2,5.1-10.528h-3.934l-5.21,11.058h-.071v-11.058h-3.757v26.51h3.757v-8.18l1.631-3.408,3.686,11.589h4.005Zm9.747-10.528v26.51h3.757V-439.2h1.666c4.041,0,6.238-2.348,6.238-6.7v-2.121c0-4.355-2.2-6.7-6.238-6.7Zm3.757,3.711H-968c1.808,0,2.623,1.023,2.623,3.257v1.591c0,2.234-.815,3.257-2.623,3.257h-1.524Zm14.745-4.09c-3.757,0-6.061,2.537-6.061,6.7v13.861c0,4.166,2.3,6.7,6.061,6.7s6.061-2.537,6.061-6.7v-13.861C-948.716-452.573-951.019-455.11-954.777-455.11Zm0,3.711c1.489,0,2.3,1.06,2.3,3.03v13.785c0,1.969-.815,3.03-2.3,3.03s-2.3-1.06-2.3-3.03v-13.785C-957.081-450.338-956.265-451.4-954.777-451.4Zm11.7,23.177v-26.51h-3.757v26.51Zm14.5,0v-26.51h-3.544v15.792h-.071l-4.431-15.792h-4.182v26.51h3.544v-17.572h.071l4.927,17.572Zm12.37-22.723v-3.787h-11.768v3.787h4.005v22.723h3.757v-22.723Z" transform="translate(1032.01 455.11)"/>
</svg>
